<!-- 로봄 패밀리의 공통 봄 획을 앱별 잉크와 강조색으로 생성하는 정본 SVG다. -->
<svg xmlns="http://www.w3.org/2000/svg" viewBox="0 0 200 120"><g fill="none" stroke="#1d3047" stroke-width="10" stroke-linecap="round" stroke-linejoin="round"><path d="M28 8V46M72 8V46M28 28H72M28 46H72M10 64H142M50 64V47M28 76H72V110H28Z"/></g><g fill="#d99a1f"><g transform="translate(148 60) scale(1.8)"><path d="M0-1.4C-4.6-1.8-6-6.2-3.7-9.2-2.5-10.7-1.2-9.4 0-7.7 1.2-9.4 2.5-10.7 3.7-9.2 6-6.2 4.6-1.8 0-1.4Z" transform="rotate(-2)"/><path d="M0-1.4C-4.6-1.8-6-6.2-3.7-9.2-2.5-10.7-1.2-9.4 0-7.7 1.2-9.4 2.5-10.7 3.7-9.2 6-6.2 4.6-1.8 0-1.4Z" transform="rotate(74)"/><path d="M0-1.4C-4.6-1.8-6-6.2-3.7-9.2-2.5-10.7-1.2-9.4 0-7.7 1.2-9.4 2.5-10.7 3.7-9.2 6-6.2 4.6-1.8 0-1.4Z" transform="rotate(142)"/><path d="M0-1.4C-4.6-1.8-6-6.2-3.7-9.2-2.5-10.7-1.2-9.4 0-7.7 1.2-9.4 2.5-10.7 3.7-9.2 6-6.2 4.6-1.8 0-1.4Z" transform="rotate(218)"/><path d="M0-1.4C-4.6-1.8-6-6.2-3.7-9.2-2.5-10.7-1.2-9.4 0-7.7 1.2-9.4 2.5-10.7 3.7-9.2 6-6.2 4.6-1.8 0-1.4Z" transform="rotate(286)"/><circle r="2.4" fill="#fffefb"/></g><path d="M0-1.4C-4.6-1.8-6-6.2-3.7-9.2-2.5-10.7-1.2-9.4 0-7.7 1.2-9.4 2.5-10.7 3.7-9.2 6-6.2 4.6-1.8 0-1.4Z" transform="translate(96 58) rotate(15)"/><path d="M0-1.4C-4.6-1.8-6-6.2-3.7-9.2-2.5-10.7-1.2-9.4 0-7.7 1.2-9.4 2.5-10.7 3.7-9.2 6-6.2 4.6-1.8 0-1.4Z" transform="translate(120 52) rotate(-20) scale(1.1)"/><path d="M0-1.4C-4.6-1.8-6-6.2-3.7-9.2-2.5-10.7-1.2-9.4 0-7.7 1.2-9.4 2.5-10.7 3.7-9.2 6-6.2 4.6-1.8 0-1.4Z" transform="translate(164 46) rotate(50) scale(1.3)"/><path d="M0-1.4C-4.6-1.8-6-6.2-3.7-9.2-2.5-10.7-1.2-9.4 0-7.7 1.2-9.4 2.5-10.7 3.7-9.2 6-6.2 4.6-1.8 0-1.4Z" transform="translate(172 62) rotate(80) scale(1.1)"/></g></svg>
