<!-- 로봄 패밀리 하단 메뉴와 설정에 쓰는 작은 선형 아이콘 스프라이트다. -->
<svg xmlns="http://www.w3.org/2000/svg" aria-hidden="true" style="display:none"><symbol id="family-icon-home" viewBox="0 0 24 24"><path d="M3 11.5 12 4l9 7.5V21h-6v-6H9v6H3Z"/></symbol><symbol id="family-icon-search" viewBox="0 0 24 24"><circle cx="10.5" cy="10.5" r="6.5"/><path d="m15.5 15.5 5 5"/></symbol><symbol id="family-icon-calendar" viewBox="0 0 24 24"><rect x="3" y="5" width="18" height="16" rx="3"/><path d="M8 3v4m8-4v4M3 10h18M8 14h.01m4 0h.01m4 0h.01M8 18h.01m4 0h.01"/></symbol><symbol id="family-icon-bell" viewBox="0 0 24 24"><path d="M5 18h14l-2-3V10a5 5 0 0 0-10 0v5Zm5 3h4"/></symbol><symbol id="family-icon-settings" viewBox="0 0 24 24"><circle cx="12" cy="12" r="3"/><path d="M19.4 15a8 8 0 0 0 .1-6l2-1.2-2-3.4-2.1 1.2a8 8 0 0 0-5.2-3V0h-4v2.4a8 8 0 0 0-4.9 3L1.2 4.2l-2 3.4L1.4 9a8 8 0 0 0 0 6l-2.2 1.2 2 3.4 2.1-1.2a8 8 0 0 0 4.9 3V24h4v-2.4a8 8 0 0 0 5.2-3l2.1 1.2 2-3.4Z" transform="scale(.8) translate(3 3)"/></symbol><symbol id="family-icon-family" viewBox="0 0 24 24"><circle cx="8" cy="8" r="3"/><circle cx="17" cy="9" r="2.5"/><path d="M2.5 21v-2a5.5 5.5 0 0 1 11 0v2m1-6a4.5 4.5 0 0 1 7 3.8V21"/></symbol><symbol id="family-icon-install" viewBox="0 0 24 24"><path d="M12 3v12m-5-5 5 5 5-5M4 19v2h16v-2"/></symbol><symbol id="family-icon-info" viewBox="0 0 24 24"><circle cx="12" cy="12" r="9"/><path d="M12 11v6m0-10h.01"/></symbol></svg>
